<svg xmlns="http://www.w3.org/2000/svg" width="25.11" height="23.92" viewBox="0 0 25.11 23.92"><title>filter</title><path d="M22.82,4a5.85,5.85,0,0,0-4,1.56H7.54a4,4,0,0,0-4.1,3.9,4,4,0,0,0,4.1,3.9H18.83a5.85,5.85,0,0,0,4,1.56A5.62,5.62,0,0,0,28.56,9.5,5.62,5.62,0,0,0,22.82,4Zm0,9.36a4,4,0,0,1-4.09-3.9,4.1,4.1,0,0,1,8.19,0A4,4,0,0,1,22.82,13.4Z" transform="translate(-3.44 -4.04)"/><path d="M24.46,18.6H13.17a5.85,5.85,0,0,0-4-1.56A5.62,5.62,0,0,0,3.44,22.5,5.62,5.62,0,0,0,9.18,28a5.85,5.85,0,0,0,4-1.56H24.46a3.9,3.9,0,1,0,0-7.8ZM9.18,26.4a3.9,3.9,0,1,1,0-7.8,3.9,3.9,0,1,1,0,7.8Z" transform="translate(-3.44 -4.04)"/></svg>