<svg xmlns="http://www.w3.org/2000/svg" width="28.94" height="24.8" viewBox="0 0 28.94 24.8"><title>heart-unfilled</title><path d="M28.38,11.16A6.84,6.84,0,0,0,28,8.85a4.44,4.44,0,0,0-.88-1.59,4.32,4.32,0,0,0-1.32-1,5.52,5.52,0,0,0-1.52-.5,8.79,8.79,0,0,0-1.58-.13,4.75,4.75,0,0,0-1.81.41,8.26,8.26,0,0,0-1.78,1c-.55.42-1,.81-1.4,1.17a12.53,12.53,0,0,0-1,1,1.07,1.07,0,0,1-1.58,0,12.53,12.53,0,0,0-1-1c-.39-.36-.85-.75-1.4-1.17a8.26,8.26,0,0,0-1.78-1,4.75,4.75,0,0,0-1.81-.41,8.79,8.79,0,0,0-1.58.13,5.52,5.52,0,0,0-1.52.5,4.32,4.32,0,0,0-1.32,1,4.44,4.44,0,0,0-.88,1.59,6.84,6.84,0,0,0-.35,2.31c0,1.81,1,3.72,3,5.73l9.38,9,9.37-9C27.37,14.88,28.38,13,28.38,11.16Zm2.07,0q0,3.57-3.7,7.27L16.69,28.11a1,1,0,0,1-1.42,0L5.19,18.39A4.84,4.84,0,0,1,4.75,18q-.29-.28-.9-1a16,16,0,0,1-1.1-1.58,9.9,9.9,0,0,1-.86-1.95,7.2,7.2,0,0,1-.38-2.23A7.41,7.41,0,0,1,3.56,5.6a7.8,7.8,0,0,1,5.67-2,6.43,6.43,0,0,1,2,.35,8.26,8.26,0,0,1,1.94.93c.6.4,1.11.77,1.54,1.11A16.08,16.08,0,0,1,16,7.09,16.08,16.08,0,0,1,17.21,6c.43-.34.94-.71,1.54-1.11A8.26,8.26,0,0,1,20.69,4a6.43,6.43,0,0,1,2-.35,7.8,7.8,0,0,1,5.67,2A7.41,7.41,0,0,1,30.45,11.16Z" transform="translate(-1.51 -3.6)"/></svg>