<svg xmlns="http://www.w3.org/2000/svg" width="28.92" height="24.79" viewBox="0 0 28.92 24.79"><title>heart</title><path d="M16,28.4a1,1,0,0,1-.71-.29L5.22,18.39q-.16-.13-.45-.42c-.18-.19-.48-.55-.89-1.06a13.49,13.49,0,0,1-1.1-1.57,9.9,9.9,0,0,1-.86-1.95,6.92,6.92,0,0,1-.38-2.23A7.37,7.37,0,0,1,3.59,5.61a7.72,7.72,0,0,1,5.66-2,6.43,6.43,0,0,1,2,.35,7.92,7.92,0,0,1,1.94.94c.6.39,1.11.76,1.54,1.1A16.08,16.08,0,0,1,16,7.09,16.08,16.08,0,0,1,17.23,6c.43-.34.94-.71,1.54-1.1A7.92,7.92,0,0,1,20.71,4a6.43,6.43,0,0,1,2-.35,7.72,7.72,0,0,1,5.66,2,7.37,7.37,0,0,1,2.05,5.55q0,3.57-3.69,7.26L16.71,28.11a1,1,0,0,1-.71.29" transform="translate(-1.54 -3.6)"/></svg>