<svg xmlns="http://www.w3.org/2000/svg" width="28.79" height="22.91" viewBox="0 0 28.79 22.91"><title>home</title><path d="M26.36,17.81v8.57a1.16,1.16,0,0,1-1.14,1.15H18.36V20.67H13.79v6.86H6.93a1.14,1.14,0,0,1-.8-.34,1.1,1.1,0,0,1-.34-.81V17.81a.11.11,0,0,1,0,0,.15.15,0,0,0,0-.06L16.08,9.24,26.35,17.7A.34.34,0,0,1,26.36,17.81Zm4-1.23L29.24,17.9a.64.64,0,0,1-.38.2h-.05a.53.53,0,0,1-.38-.13L16.08,7.67,3.72,18a.66.66,0,0,1-.43.13.61.61,0,0,1-.37-.2L1.81,16.58a.57.57,0,0,1-.13-.42.53.53,0,0,1,.2-.38L14.72,5.08a2.19,2.19,0,0,1,2.71,0l4.36,3.64V5.24A.58.58,0,0,1,22,4.83a.56.56,0,0,1,.41-.16h3.43a.53.53,0,0,1,.41.16.54.54,0,0,1,.16.41v7.29l3.91,3.25a.5.5,0,0,1,.2.38A.61.61,0,0,1,30.35,16.58Z" transform="translate(-1.68 -4.61)"/></svg>